# xmcd CD database file
#
# Track frame offsets:
#	150
#	4890
#	20037
#	40570
#	60799
#	78236
#	102750
#	124420
#	137445
#	162706
#
# Disc length: 2506 seconds
#
# Revision: 0
# Processed by: cddbd v1.4PL0 Copyright (c) Steve Scherf et al.
# Submitted via: CD2WAV32(EN) R3.19
#
DISCID=7509c80a
DTITLE=SEGA - Power Drift
DYEAR=1900
DGENRE=
TTITLE0=DATA
TTITLE1=Poker Face
TTITLE2=Side Street
TTITLE3=Like the Wind
TTITLE4=Silent Language
TTITLE5=Adjustment Mind
TTITLE6=Artistic Traps
TTITLE7=Continue
TTITLE8=Side Street Slow
TTITLE9=Like the Wind slow
EXTD=
EXTT0=
EXTT1=
EXTT2=
EXTT3=
EXTT4=
EXTT5=
EXTT6=
EXTT7=
EXTT8=
EXTT9=
PLAYORDER=
